<?xml version="1.0" encoding="UTF-8"?><svg xmlns="http://www.w3.org/2000/svg" xmlns:xlink="http://www.w3.org/1999/xlink" width="600" zoomAndPan="magnify" viewBox="0 0 600 374.999991" height="374.999991" preserveAspectRatio="xMidYMid meet" version="1.0"><defs><clipPath id="clip-0"><path d="M 253.3125 114 L 347.0625 114 L 347.0625 262.5 L 253.3125 262.5 Z M 253.3125 114 " clip-rule="nonzero"/></clipPath></defs><path fill="rgb(0%, 0%, 0%)" d="M 292.785156 161.453125 L 297.71875 161.453125 C 297.71875 160.96875 297.671875 160.488281 297.578125 160.015625 C 297.484375 159.539062 297.34375 159.078125 297.15625 158.632812 C 296.972656 158.183594 296.742188 157.761719 296.472656 157.359375 C 296.203125 156.957031 295.894531 156.582031 295.550781 156.242188 C 295.207031 155.898438 294.835938 155.59375 294.429688 155.324219 C 294.027344 155.054688 293.601562 154.828125 293.152344 154.644531 C 292.703125 154.457031 292.238281 154.316406 291.761719 154.222656 C 291.285156 154.128906 290.804688 154.082031 290.320312 154.082031 C 289.832031 154.082031 289.351562 154.128906 288.875 154.222656 C 288.398438 154.316406 287.9375 154.457031 287.488281 154.644531 C 287.039062 154.828125 286.609375 155.054688 286.207031 155.324219 C 285.804688 155.59375 285.429688 155.898438 285.085938 156.242188 C 284.742188 156.582031 284.433594 156.957031 284.164062 157.359375 C 283.894531 157.761719 283.667969 158.183594 283.480469 158.632812 C 283.296875 159.078125 283.15625 159.539062 283.058594 160.015625 C 282.964844 160.488281 282.917969 160.96875 282.917969 161.453125 L 287.851562 161.453125 C 287.851562 161.128906 287.914062 160.8125 288.039062 160.511719 C 288.164062 160.210938 288.34375 159.945312 288.574219 159.714844 C 288.804688 159.484375 289.074219 159.308594 289.375 159.183594 C 289.675781 159.058594 289.992188 158.996094 290.320312 158.996094 C 290.644531 158.996094 290.960938 159.058594 291.261719 159.183594 C 291.566406 159.308594 291.832031 159.484375 292.0625 159.714844 C 292.292969 159.945312 292.472656 160.210938 292.597656 160.511719 C 292.722656 160.8125 292.785156 161.128906 292.785156 161.453125 Z M 292.785156 161.453125 " fill-opacity="1" fill-rule="nonzero"/><path fill="rgb(0%, 0%, 0%)" d="M 310.054688 158.996094 C 310.382812 158.996094 310.699219 159.058594 311 159.183594 C 311.300781 159.308594 311.570312 159.484375 311.800781 159.714844 C 312.03125 159.945312 312.210938 160.210938 312.335938 160.511719 C 312.460938 160.8125 312.523438 161.128906 312.523438 161.453125 L 317.457031 161.453125 C 317.457031 160.96875 317.410156 160.488281 317.316406 160.015625 C 317.21875 159.539062 317.078125 159.078125 316.894531 158.632812 C 316.707031 158.183594 316.480469 157.761719 316.210938 157.359375 C 315.941406 156.957031 315.632812 156.582031 315.289062 156.242188 C 314.945312 155.898438 314.570312 155.59375 314.167969 155.324219 C 313.765625 155.054688 313.335938 154.828125 312.886719 154.644531 C 312.4375 154.457031 311.976562 154.316406 311.5 154.222656 C 311.023438 154.128906 310.542969 154.082031 310.054688 154.082031 C 309.570312 154.082031 309.089844 154.128906 308.613281 154.222656 C 308.136719 154.316406 307.671875 154.457031 307.222656 154.644531 C 306.773438 154.828125 306.347656 155.054688 305.945312 155.324219 C 305.539062 155.59375 305.164062 155.898438 304.824219 156.242188 C 304.480469 156.582031 304.171875 156.957031 303.902344 157.359375 C 303.632812 157.761719 303.402344 158.183594 303.21875 158.632812 C 303.03125 159.078125 302.890625 159.539062 302.796875 160.015625 C 302.703125 160.488281 302.65625 160.96875 302.65625 161.453125 L 307.589844 161.453125 C 307.589844 161.128906 307.652344 160.8125 307.777344 160.511719 C 307.902344 160.210938 308.078125 159.945312 308.3125 159.714844 C 308.542969 159.484375 308.808594 159.308594 309.113281 159.183594 C 309.414062 159.058594 309.730469 158.996094 310.054688 158.996094 Z M 310.054688 158.996094 " fill-opacity="1" fill-rule="nonzero"/><path fill="rgb(0%, 0%, 0%)" d="M 310.871094 174.96875 L 306.601562 172.511719 C 306.277344 173.074219 305.886719 173.582031 305.425781 174.039062 C 304.964844 174.5 304.457031 174.890625 303.890625 175.214844 C 303.328125 175.539062 302.734375 175.785156 302.105469 175.953125 C 301.476562 176.121094 300.839844 176.203125 300.1875 176.203125 C 299.535156 176.203125 298.898438 176.121094 298.269531 175.953125 C 297.640625 175.785156 297.046875 175.539062 296.484375 175.214844 C 295.917969 174.890625 295.410156 174.5 294.949219 174.039062 C 294.488281 173.582031 294.097656 173.074219 293.773438 172.511719 L 289.503906 174.96875 C 289.773438 175.433594 290.074219 175.878906 290.402344 176.304688 C 290.730469 176.730469 291.085938 177.132812 291.464844 177.511719 C 291.847656 177.890625 292.25 178.246094 292.679688 178.570312 C 293.105469 178.898438 293.554688 179.195312 294.019531 179.464844 C 294.488281 179.734375 294.96875 179.96875 295.46875 180.175781 C 295.964844 180.382812 296.472656 180.554688 296.996094 180.691406 C 297.515625 180.832031 298.042969 180.933594 298.578125 181.003906 C 299.113281 181.074219 299.648438 181.109375 300.1875 181.109375 C 300.726562 181.109375 301.261719 181.074219 301.796875 181.003906 C 302.332031 180.933594 302.859375 180.832031 303.378906 180.691406 C 303.902344 180.554688 304.410156 180.382812 304.90625 180.175781 C 305.40625 179.96875 305.886719 179.734375 306.355469 179.464844 C 306.820312 179.195312 307.269531 178.898438 307.695312 178.570312 C 308.125 178.246094 308.527344 177.890625 308.910156 177.511719 C 309.289062 177.132812 309.644531 176.730469 309.972656 176.304688 C 310.300781 175.878906 310.601562 175.433594 310.871094 174.96875 Z M 310.871094 174.96875 " fill-opacity="1" fill-rule="nonzero"/><g clip-path="url(#clip-0)"><path fill="rgb(0%, 0%, 0%)" d="M 332.40625 201.335938 L 317.085938 198.976562 C 316.792969 198.933594 316.519531 198.839844 316.257812 198.699219 C 316 198.554688 315.773438 198.375 315.582031 198.148438 C 315.386719 197.925781 315.242188 197.675781 315.140625 197.398438 C 315.039062 197.121094 314.988281 196.835938 314.988281 196.542969 L 314.988281 192.929688 C 316.417969 192.65625 317.8125 192.273438 319.179688 191.777344 C 320.546875 191.28125 321.863281 190.679688 323.132812 189.972656 C 324.402344 189.265625 325.605469 188.464844 326.746094 187.566406 C 327.886719 186.667969 328.949219 185.683594 329.929688 184.617188 C 330.914062 183.550781 331.804688 182.410156 332.601562 181.203125 C 333.402344 179.992188 334.101562 178.726562 334.695312 177.40625 C 335.292969 176.085938 335.777344 174.726562 336.15625 173.328125 C 336.535156 171.929688 336.796875 170.511719 336.949219 169.070312 L 338.207031 156.589844 C 338.335938 155.269531 338.398438 153.949219 338.390625 152.621094 C 338.386719 151.296875 338.308594 149.976562 338.164062 148.660156 C 338.019531 147.34375 337.804688 146.035156 337.523438 144.742188 C 337.238281 143.445312 336.890625 142.171875 336.472656 140.910156 C 336.058594 139.652344 335.574219 138.417969 335.03125 137.210938 C 334.484375 136.003906 333.875 134.824219 333.207031 133.679688 C 332.539062 132.535156 331.8125 131.429688 331.027344 130.359375 C 330.238281 129.289062 329.402344 128.261719 328.507812 127.28125 C 327.613281 126.300781 326.671875 125.367188 325.683594 124.480469 C 324.691406 123.597656 323.65625 122.765625 322.578125 121.992188 C 321.5 121.214844 320.386719 120.496094 319.230469 119.835938 C 318.078125 119.175781 316.894531 118.574219 315.679688 118.039062 C 314.460938 117.5 313.222656 117.027344 311.957031 116.621094 C 310.691406 116.210938 309.40625 115.871094 308.105469 115.597656 C 306.804688 115.320312 305.492188 115.113281 304.167969 114.976562 C 302.84375 114.839844 301.519531 114.769531 300.1875 114.769531 C 298.855469 114.769531 297.53125 114.839844 296.207031 114.976562 C 294.882812 115.113281 293.570312 115.320312 292.269531 115.597656 C 290.96875 115.871094 289.683594 116.210938 288.417969 116.621094 C 287.152344 117.027344 285.914062 117.5 284.695312 118.039062 C 283.480469 118.574219 282.296875 119.175781 281.144531 119.835938 C 279.988281 120.496094 278.875 121.214844 277.796875 121.992188 C 276.71875 122.765625 275.683594 123.597656 274.691406 124.480469 C 273.703125 125.367188 272.761719 126.300781 271.867188 127.28125 C 270.972656 128.261719 270.136719 129.289062 269.347656 130.359375 C 268.5625 131.429688 267.835938 132.535156 267.167969 133.679688 C 266.5 134.824219 265.890625 136.003906 265.34375 137.210938 C 264.800781 138.417969 264.316406 139.652344 263.902344 140.910156 C 263.484375 142.171875 263.136719 143.445312 262.851562 144.742188 C 262.570312 146.035156 262.355469 147.34375 262.210938 148.660156 C 262.066406 149.976562 261.988281 151.296875 261.984375 152.621094 C 261.976562 153.949219 262.039062 155.269531 262.167969 156.589844 L 263.425781 169.070312 C 263.578125 170.511719 263.839844 171.929688 264.21875 173.328125 C 264.597656 174.726562 265.082031 176.085938 265.679688 177.40625 C 266.273438 178.726562 266.972656 179.992188 267.773438 181.203125 C 268.570312 182.410156 269.460938 183.550781 270.445312 184.617188 C 271.425781 185.683594 272.488281 186.667969 273.628906 187.566406 C 274.769531 188.464844 275.972656 189.265625 277.242188 189.972656 C 278.511719 190.679688 279.828125 191.28125 281.195312 191.777344 C 282.5625 192.273438 283.957031 192.65625 285.386719 192.929688 L 285.386719 196.542969 C 285.386719 196.835938 285.335938 197.121094 285.234375 197.398438 C 285.132812 197.675781 284.988281 197.925781 284.792969 198.148438 C 284.601562 198.375 284.375 198.554688 284.117188 198.699219 C 283.855469 198.839844 283.582031 198.933594 283.289062 198.976562 L 267.96875 201.335938 C 266.953125 201.484375 265.960938 201.722656 264.992188 202.050781 C 264.019531 202.378906 263.085938 202.789062 262.1875 203.28125 C 261.292969 203.773438 260.445312 204.34375 259.652344 204.988281 C 258.855469 205.632812 258.125 206.34375 257.457031 207.117188 C 256.789062 207.890625 256.199219 208.71875 255.679688 209.597656 C 255.160156 210.476562 254.722656 211.398438 254.371094 212.355469 C 254.015625 213.3125 253.75 214.292969 253.574219 215.300781 C 253.394531 216.304688 253.308594 217.316406 253.3125 218.339844 L 253.3125 259.742188 C 253.3125 260.070312 253.375 260.382812 253.5 260.683594 C 253.625 260.984375 253.804688 261.25 254.035156 261.480469 C 254.265625 261.710938 254.535156 261.886719 254.835938 262.011719 C 255.136719 262.136719 255.453125 262.199219 255.78125 262.199219 L 344.59375 262.199219 C 344.921875 262.199219 345.238281 262.136719 345.539062 262.011719 C 345.839844 261.886719 346.109375 261.710938 346.339844 261.480469 C 346.570312 261.25 346.75 260.984375 346.875 260.683594 C 347 260.382812 347.0625 260.070312 347.0625 259.742188 L 347.0625 218.339844 C 347.066406 217.316406 346.980469 216.304688 346.800781 215.300781 C 346.625 214.292969 346.359375 213.3125 346.003906 212.355469 C 345.652344 211.398438 345.214844 210.476562 344.695312 209.597656 C 344.175781 208.71875 343.585938 207.890625 342.917969 207.117188 C 342.25 206.34375 341.519531 205.632812 340.722656 204.988281 C 339.929688 204.34375 339.082031 203.773438 338.1875 203.28125 C 337.289062 202.789062 336.355469 202.378906 335.382812 202.050781 C 334.414062 201.722656 333.421875 201.484375 332.40625 201.335938 Z M 316.324219 203.839844 L 320.46875 204.480469 C 318.859375 207.972656 316.695312 211.085938 313.980469 213.816406 C 313.519531 214.285156 312.992188 214.652344 312.390625 214.910156 C 311.785156 215.171875 311.15625 215.304688 310.5 215.316406 C 309.835938 215.332031 309.195312 215.210938 308.582031 214.960938 C 307.96875 214.707031 307.433594 214.34375 306.972656 213.867188 L 305.121094 212.046875 C 307.117188 211.164062 308.855469 209.925781 310.34375 208.335938 C 311.828125 206.746094 312.941406 204.925781 313.683594 202.882812 C 314.5 203.371094 315.378906 203.691406 316.324219 203.839844 Z M 300.1875 208.140625 C 294.734375 208.140625 290.320312 202.636719 290.320312 195.855469 L 290.320312 191.53125 C 291.890625 192.148438 293.503906 192.613281 295.164062 192.925781 C 296.824219 193.242188 298.5 193.398438 300.1875 193.398438 C 301.875 193.398438 303.550781 193.242188 305.210938 192.925781 C 306.871094 192.613281 308.484375 192.148438 310.054688 191.53125 L 310.054688 195.855469 C 310.054688 202.636719 305.640625 208.140625 300.1875 208.140625 Z M 332.039062 168.578125 C 331.933594 169.609375 331.753906 170.628906 331.503906 171.632812 C 331.253906 172.640625 330.9375 173.625 330.550781 174.585938 C 330.160156 175.546875 329.707031 176.476562 329.1875 177.375 C 328.671875 178.273438 328.089844 179.128906 327.453125 179.949219 C 326.8125 180.765625 326.121094 181.535156 325.371094 182.253906 C 324.625 182.976562 323.832031 183.640625 322.988281 184.25 C 322.148438 184.859375 321.269531 185.40625 320.351562 185.894531 C 319.433594 186.378906 318.484375 186.800781 317.507812 187.15625 C 318.882812 186.023438 320.132812 184.765625 321.257812 183.382812 C 322.382812 182.003906 323.359375 180.527344 324.191406 178.953125 C 325.023438 177.382812 325.691406 175.742188 326.199219 174.039062 C 326.707031 172.332031 327.039062 170.59375 327.203125 168.824219 L 327.324219 168.824219 C 329.046875 168.820312 330.652344 168.386719 332.136719 167.523438 Z M 330.804688 162.460938 C 330.34375 162.925781 329.8125 163.28125 329.210938 163.53125 C 328.609375 163.785156 327.980469 163.910156 327.324219 163.910156 L 327.324219 154.082031 C 327.648438 154.082031 327.96875 154.113281 328.289062 154.179688 C 328.605469 154.242188 328.914062 154.335938 329.210938 154.460938 C 329.511719 154.582031 329.792969 154.734375 330.0625 154.914062 C 330.332031 155.09375 330.582031 155.296875 330.808594 155.523438 C 331.039062 155.753906 331.242188 156 331.421875 156.269531 C 331.605469 156.539062 331.757812 156.820312 331.878906 157.117188 C 332.003906 157.414062 332.097656 157.722656 332.164062 158.039062 C 332.226562 158.355469 332.257812 158.671875 332.261719 158.996094 C 332.257812 159.648438 332.132812 160.273438 331.878906 160.875 C 331.628906 161.472656 331.269531 162.003906 330.804688 162.460938 Z M 275.542969 130.566406 C 276.640625 129.355469 277.820312 128.230469 279.085938 127.195312 C 280.351562 126.160156 281.683594 125.222656 283.089844 124.382812 C 284.492188 123.542969 285.953125 122.808594 287.464844 122.183594 C 288.976562 121.558594 290.527344 121.046875 292.117188 120.652344 C 293.707031 120.253906 295.316406 119.976562 296.945312 119.820312 C 298.574219 119.660156 300.207031 119.621094 301.84375 119.703125 C 303.480469 119.78125 305.101562 119.984375 306.707031 120.304688 C 308.3125 120.625 309.886719 121.058594 311.429688 121.613281 C 312.96875 122.164062 314.460938 122.828125 315.90625 123.597656 C 317.347656 124.371094 318.726562 125.242188 320.039062 126.21875 C 321.351562 127.195312 322.585938 128.257812 323.742188 129.417969 C 324.894531 130.574219 325.957031 131.808594 326.929688 133.121094 C 327.902344 134.433594 328.769531 135.8125 329.539062 137.253906 C 330.304688 138.695312 330.960938 140.1875 331.507812 141.722656 C 332.050781 143.261719 332.480469 144.832031 332.792969 146.433594 C 333.105469 148.035156 333.296875 149.652344 333.371094 151.28125 C 332.511719 150.601562 331.5625 150.078125 330.527344 149.714844 C 329.492188 149.355469 328.421875 149.171875 327.324219 149.167969 C 327.328125 148.859375 327.269531 148.558594 327.160156 148.269531 C 327.046875 147.980469 326.882812 147.722656 326.675781 147.496094 C 326.464844 147.269531 326.21875 147.085938 325.941406 146.949219 C 325.660156 146.816406 325.367188 146.734375 325.054688 146.710938 C 307.242188 145.308594 298.511719 140.46875 289.480469 132.582031 C 288.957031 132.117188 288.351562 131.914062 287.65625 131.964844 C 286.960938 132.015625 286.390625 132.3125 285.953125 132.851562 L 273.617188 147.59375 C 273.238281 148.050781 273.046875 148.574219 273.050781 149.167969 C 271.953125 149.171875 270.882812 149.355469 269.847656 149.714844 C 268.8125 150.078125 267.863281 150.601562 267.003906 151.28125 C 267.09375 149.375 267.34375 147.492188 267.757812 145.628906 C 268.171875 143.765625 268.742188 141.953125 269.472656 140.1875 C 270.199219 138.421875 271.070312 136.730469 272.089844 135.117188 C 273.109375 133.5 274.261719 131.984375 275.542969 130.566406 Z M 273.050781 154.082031 L 273.050781 163.910156 C 272.726562 163.90625 272.40625 163.875 272.089844 163.808594 C 271.773438 163.746094 271.464844 163.652344 271.167969 163.527344 C 270.867188 163.402344 270.585938 163.25 270.316406 163.070312 C 270.046875 162.890625 269.800781 162.6875 269.570312 162.460938 C 269.34375 162.234375 269.136719 161.984375 268.957031 161.71875 C 268.777344 161.449219 268.625 161.167969 268.5 160.871094 C 268.375 160.574219 268.28125 160.269531 268.214844 159.953125 C 268.152344 159.636719 268.117188 159.316406 268.113281 158.996094 C 268.117188 158.671875 268.148438 158.355469 268.210938 158.039062 C 268.277344 157.722656 268.371094 157.414062 268.496094 157.117188 C 268.617188 156.820312 268.769531 156.539062 268.953125 156.269531 C 269.132812 156 269.335938 155.753906 269.566406 155.523438 C 269.792969 155.296875 270.042969 155.09375 270.3125 154.914062 C 270.582031 154.734375 270.863281 154.582031 271.164062 154.460938 C 271.460938 154.335938 271.769531 154.242188 272.085938 154.179688 C 272.40625 154.113281 272.726562 154.082031 273.050781 154.082031 Z M 268.335938 168.578125 L 268.238281 167.523438 C 269.722656 168.386719 271.328125 168.820312 273.050781 168.824219 L 273.171875 168.824219 C 273.335938 170.59375 273.667969 172.332031 274.175781 174.039062 C 274.683594 175.742188 275.351562 177.382812 276.183594 178.953125 C 277.015625 180.527344 277.992188 182.003906 279.117188 183.382812 C 280.242188 184.765625 281.492188 186.023438 282.867188 187.15625 C 281.890625 186.800781 280.941406 186.378906 280.023438 185.894531 C 279.105469 185.40625 278.226562 184.859375 277.386719 184.25 C 276.542969 183.640625 275.75 182.976562 275.003906 182.253906 C 274.253906 181.535156 273.5625 180.765625 272.921875 179.949219 C 272.285156 179.128906 271.703125 178.273438 271.1875 177.375 C 270.667969 176.476562 270.214844 175.546875 269.824219 174.585938 C 269.4375 173.625 269.121094 172.640625 268.871094 171.632812 C 268.621094 170.628906 268.441406 169.609375 268.335938 168.578125 Z M 277.984375 166.367188 L 277.984375 150.050781 L 288.148438 137.914062 C 296.757812 145.015625 306.011719 149.78125 322.390625 151.402344 L 322.390625 166.367188 C 322.390625 167.09375 322.355469 167.816406 322.285156 168.535156 C 322.214844 169.257812 322.105469 169.972656 321.964844 170.683594 C 321.824219 171.390625 321.644531 172.09375 321.433594 172.789062 C 321.222656 173.480469 320.980469 174.160156 320.703125 174.832031 C 320.421875 175.5 320.113281 176.152344 319.769531 176.792969 C 319.425781 177.429688 319.054688 178.050781 318.648438 178.652344 C 318.246094 179.257812 317.8125 179.835938 317.351562 180.398438 C 316.890625 180.957031 316.402344 181.492188 315.886719 182.003906 C 315.375 182.519531 314.835938 183.003906 314.273438 183.464844 C 313.710938 183.921875 313.128906 184.351562 312.523438 184.753906 C 311.917969 185.15625 311.296875 185.53125 310.65625 185.871094 C 310.011719 186.214844 309.355469 186.523438 308.683594 186.800781 C 308.011719 187.078125 307.328125 187.320312 306.632812 187.53125 C 305.9375 187.742188 305.234375 187.917969 304.519531 188.058594 C 303.804688 188.199219 303.085938 188.304688 302.363281 188.375 C 301.640625 188.449219 300.914062 188.484375 300.1875 188.484375 C 299.460938 188.484375 298.734375 188.449219 298.011719 188.375 C 297.289062 188.304688 296.570312 188.199219 295.855469 188.058594 C 295.140625 187.917969 294.4375 187.742188 293.742188 187.53125 C 293.046875 187.320312 292.363281 187.078125 291.691406 186.800781 C 291.019531 186.523438 290.363281 186.214844 289.71875 185.871094 C 289.078125 185.53125 288.457031 185.15625 287.851562 184.753906 C 287.246094 184.351562 286.664062 183.921875 286.101562 183.464844 C 285.539062 183.003906 285 182.519531 284.488281 182.003906 C 283.972656 181.492188 283.484375 180.957031 283.023438 180.398438 C 282.5625 179.835938 282.128906 179.257812 281.726562 178.652344 C 281.320312 178.050781 280.949219 177.429688 280.605469 176.792969 C 280.261719 176.152344 279.953125 175.5 279.671875 174.832031 C 279.394531 174.160156 279.152344 173.480469 278.941406 172.789062 C 278.730469 172.09375 278.550781 171.390625 278.410156 170.683594 C 278.269531 169.972656 278.160156 169.257812 278.089844 168.535156 C 278.019531 167.816406 277.984375 167.09375 277.984375 166.367188 Z M 284.050781 203.839844 C 284.996094 203.691406 285.875 203.371094 286.691406 202.882812 C 287.433594 204.925781 288.546875 206.746094 290.03125 208.335938 C 291.519531 209.925781 293.257812 211.164062 295.253906 212.046875 L 293.402344 213.867188 C 292.425781 214.828125 291.25 215.3125 289.875 215.316406 C 289.214844 215.304688 288.585938 215.167969 287.980469 214.90625 C 287.378906 214.640625 286.847656 214.269531 286.394531 213.792969 C 283.675781 211.074219 281.511719 207.96875 279.90625 204.480469 Z M 258.246094 257.285156 L 258.246094 237.628906 L 266.363281 237.628906 C 265.910156 239.234375 265.671875 240.871094 265.648438 242.542969 C 265.722656 246.515625 266.824219 250.1875 268.953125 253.550781 C 269.667969 254.707031 270.152344 255.953125 270.410156 257.285156 Z M 342.128906 257.285156 L 329.964844 257.285156 C 330.222656 255.953125 330.707031 254.707031 331.421875 253.550781 C 333.550781 250.1875 334.652344 246.515625 334.726562 242.542969 C 334.703125 240.871094 334.464844 239.234375 334.011719 237.628906 L 342.128906 237.628906 Z M 342.128906 232.714844 L 332.0625 232.714844 C 331.839844 232.320312 331.667969 231.902344 331.421875 231.535156 C 330.367188 229.882812 329.824219 228.082031 329.792969 226.128906 L 329.792969 225.339844 L 324.859375 225.339844 L 324.859375 226.128906 C 324.882812 229.015625 325.671875 231.675781 327.226562 234.113281 C 327.644531 234.734375 328.011719 235.382812 328.332031 236.054688 C 328.652344 236.730469 328.921875 237.425781 329.136719 238.136719 C 329.355469 238.851562 329.519531 239.578125 329.628906 240.316406 C 329.738281 241.054688 329.792969 241.796875 329.792969 242.542969 C 329.792969 243.289062 329.738281 244.03125 329.628906 244.769531 C 329.519531 245.507812 329.355469 246.230469 329.136719 246.945312 C 328.917969 247.660156 328.652344 248.355469 328.332031 249.027344 C 328.011719 249.703125 327.644531 250.351562 327.226562 250.96875 C 326.011719 252.910156 325.261719 255.015625 324.980469 257.285156 L 275.394531 257.285156 C 275.113281 255.015625 274.363281 252.910156 273.148438 250.96875 C 272.730469 250.351562 272.363281 249.703125 272.042969 249.027344 C 271.722656 248.355469 271.453125 247.660156 271.238281 246.945312 C 271.019531 246.230469 270.855469 245.507812 270.746094 244.769531 C 270.636719 244.03125 270.582031 243.289062 270.582031 242.542969 C 270.582031 241.796875 270.636719 241.054688 270.746094 240.316406 C 270.855469 239.578125 271.019531 238.851562 271.238281 238.136719 C 271.453125 237.425781 271.722656 236.730469 272.042969 236.054688 C 272.363281 235.382812 272.730469 234.734375 273.148438 234.113281 C 274.703125 231.675781 275.492188 229.015625 275.515625 226.128906 L 275.515625 225.339844 L 270.582031 225.339844 L 270.582031 226.128906 C 270.550781 228.082031 270.007812 229.882812 268.953125 231.535156 C 268.707031 231.902344 268.535156 232.320312 268.3125 232.714844 L 258.246094 232.714844 L 258.246094 218.339844 C 258.242188 217.609375 258.300781 216.886719 258.425781 216.167969 C 258.554688 215.449219 258.742188 214.746094 258.992188 214.0625 C 259.246094 213.378906 259.554688 212.722656 259.925781 212.09375 C 260.296875 211.464844 260.71875 210.875 261.195312 210.320312 C 261.671875 209.765625 262.195312 209.261719 262.765625 208.800781 C 263.332031 208.339844 263.9375 207.933594 264.578125 207.582031 C 265.21875 207.230469 265.886719 206.9375 266.582031 206.707031 C 267.273438 206.472656 267.984375 206.304688 268.707031 206.199219 L 274.925781 205.242188 C 276.757812 209.761719 279.394531 213.75 282.84375 217.207031 C 283.753906 218.160156 284.816406 218.898438 286.027344 219.421875 C 287.238281 219.945312 288.503906 220.214844 289.824219 220.230469 L 289.925781 220.230469 C 291.234375 220.230469 292.492188 219.984375 293.703125 219.484375 C 294.914062 218.988281 295.980469 218.277344 296.90625 217.355469 L 300.1875 214.0625 L 303.46875 217.355469 C 304.394531 218.277344 305.460938 218.988281 306.671875 219.484375 C 307.882812 219.984375 309.140625 220.230469 310.449219 220.230469 L 310.550781 220.230469 C 311.867188 220.214844 313.132812 219.949219 314.339844 219.429688 C 315.550781 218.910156 316.617188 218.175781 317.53125 217.234375 C 320.972656 213.761719 323.613281 209.765625 325.449219 205.242188 L 331.667969 206.199219 C 332.390625 206.304688 333.101562 206.472656 333.792969 206.707031 C 334.488281 206.9375 335.15625 207.230469 335.796875 207.582031 C 336.4375 207.933594 337.042969 208.339844 337.609375 208.800781 C 338.179688 209.261719 338.699219 209.765625 339.179688 210.320312 C 339.65625 210.875 340.078125 211.464844 340.449219 212.09375 C 340.820312 212.722656 341.128906 213.378906 341.382812 214.0625 C 341.632812 214.746094 341.820312 215.449219 341.949219 216.167969 C 342.074219 216.886719 342.132812 217.609375 342.128906 218.339844 Z M 342.128906 232.714844 " fill-opacity="1" fill-rule="nonzero"/></g></svg>