<?xml version="1.0" encoding="UTF-8"?><svg xmlns="http://www.w3.org/2000/svg" xmlns:xlink="http://www.w3.org/1999/xlink" width="600" zoomAndPan="magnify" viewBox="0 0 600 374.999991" height="374.999991" preserveAspectRatio="xMidYMid meet" version="1.0"><defs><clipPath id="clip-0"><path d="M 247.5 112.5 L 352.5 112.5 L 352.5 262.5 L 247.5 262.5 Z M 247.5 112.5 " clip-rule="nonzero"/></clipPath></defs><g clip-path="url(#clip-0)"><path fill="rgb(0%, 0%, 0%)" d="M 337.300781 200.675781 L 320 198.351562 L 320 197.375 C 319.996094 196.6875 319.753906 196.09375 319.273438 195.601562 L 315 191.351562 L 315 187.898438 C 316.738281 186.765625 318.324219 185.453125 319.765625 183.957031 C 321.207031 182.464844 322.460938 180.828125 323.535156 179.050781 C 324.605469 177.277344 325.464844 175.402344 326.113281 173.429688 C 326.761719 171.460938 327.183594 169.441406 327.375 167.375 L 327.5 167.375 C 328.054688 167.375 328.605469 167.332031 329.152344 167.242188 C 329.699219 167.152344 330.234375 167.015625 330.757812 166.839844 C 331.28125 166.660156 331.789062 166.4375 332.277344 166.171875 C 332.761719 165.910156 333.226562 165.605469 333.664062 165.265625 C 334.097656 164.925781 334.503906 164.550781 334.878906 164.140625 C 335.253906 163.734375 335.59375 163.296875 335.894531 162.832031 C 336.195312 162.367188 336.457031 161.878906 336.675781 161.371094 C 336.898438 160.863281 337.074219 160.339844 337.207031 159.800781 C 337.339844 159.261719 337.425781 158.71875 337.46875 158.164062 C 337.511719 157.613281 337.507812 157.058594 337.457031 156.507812 C 337.40625 155.957031 337.3125 155.410156 337.171875 154.875 C 337.03125 154.339844 336.847656 153.820312 336.617188 153.3125 C 336.390625 152.808594 336.125 152.324219 335.816406 151.863281 C 335.507812 151.402344 335.164062 150.972656 334.78125 150.570312 C 334.402344 150.164062 333.992188 149.796875 333.550781 149.460938 C 333.109375 149.128906 332.640625 148.832031 332.148438 148.574219 C 332.367188 148.203125 332.484375 147.804688 332.5 147.375 L 332.5 143.625 C 332.5 142.601562 332.449219 141.582031 332.347656 140.5625 C 332.25 139.542969 332.097656 138.53125 331.898438 137.527344 C 331.699219 136.523438 331.453125 135.53125 331.15625 134.554688 C 330.855469 133.574219 330.511719 132.613281 330.121094 131.667969 C 329.730469 130.71875 329.292969 129.796875 328.808594 128.894531 C 328.328125 127.992188 327.800781 127.113281 327.234375 126.261719 C 326.664062 125.414062 326.054688 124.589844 325.40625 123.800781 C 324.757812 123.007812 324.070312 122.25 323.347656 121.527344 C 322.625 120.804688 321.867188 120.117188 321.074219 119.46875 C 320.285156 118.820312 319.460938 118.210938 318.613281 117.640625 C 317.761719 117.074219 316.882812 116.546875 315.980469 116.066406 C 315.078125 115.582031 314.15625 115.144531 313.207031 114.753906 C 312.261719 114.363281 311.300781 114.019531 310.320312 113.71875 C 309.34375 113.421875 308.351562 113.175781 307.347656 112.976562 C 306.34375 112.777344 305.332031 112.625 304.3125 112.527344 C 303.292969 112.425781 302.273438 112.375 301.25 112.375 C 300.226562 112.375 299.207031 112.425781 298.1875 112.527344 C 297.167969 112.625 296.15625 112.777344 295.152344 112.976562 C 294.148438 113.175781 293.15625 113.421875 292.179688 113.71875 C 291.199219 114.019531 290.238281 114.363281 289.292969 114.753906 C 288.34375 115.144531 287.421875 115.582031 286.519531 116.066406 C 285.617188 116.546875 284.738281 117.074219 283.886719 117.640625 C 283.039062 118.210938 282.214844 118.820312 281.425781 119.46875 C 280.632812 120.117188 279.875 120.804688 279.152344 121.527344 C 278.429688 122.25 277.742188 123.007812 277.09375 123.800781 C 276.445312 124.589844 275.835938 125.414062 275.265625 126.261719 C 274.699219 127.113281 274.171875 127.992188 273.691406 128.894531 C 273.207031 129.796875 272.769531 130.71875 272.378906 131.667969 C 271.988281 132.613281 271.644531 133.574219 271.34375 134.554688 C 271.046875 135.53125 270.800781 136.523438 270.601562 137.527344 C 270.402344 138.53125 270.25 139.542969 270.152344 140.5625 C 270.050781 141.582031 270 142.601562 270 143.625 L 270 147.375 C 270.003906 147.492188 270.019531 147.609375 270.050781 147.726562 C 269.464844 147.871094 268.898438 148.070312 268.347656 148.320312 C 267.796875 148.570312 267.273438 148.867188 266.777344 149.214844 C 266.285156 149.558594 265.824219 149.945312 265.398438 150.375 C 264.972656 150.800781 264.589844 151.265625 264.246094 151.765625 C 263.90625 152.261719 263.613281 152.789062 263.367188 153.339844 C 263.121094 153.890625 262.925781 154.460938 262.785156 155.046875 C 262.640625 155.632812 262.554688 156.226562 262.519531 156.832031 C 262.484375 157.433594 262.503906 158.035156 262.578125 158.632812 C 262.652344 159.234375 262.78125 159.820312 262.964844 160.398438 C 263.144531 160.972656 263.378906 161.527344 263.660156 162.0625 C 263.941406 162.59375 264.269531 163.101562 264.644531 163.574219 C 265.015625 164.046875 265.429688 164.484375 265.882812 164.882812 C 266.335938 165.285156 266.820312 165.640625 267.339844 165.949219 C 267.855469 166.261719 268.398438 166.523438 268.964844 166.734375 C 269.527344 166.949219 270.109375 167.109375 270.703125 167.214844 C 271.296875 167.324219 271.894531 167.375 272.5 167.375 L 272.625 167.375 C 272.90625 170.578125 273.726562 173.636719 275.089844 176.550781 C 276.453125 179.464844 278.273438 182.054688 280.550781 184.324219 C 281.921875 185.664062 283.402344 186.863281 285 187.925781 L 285 191.351562 L 280.726562 195.601562 C 280.246094 196.09375 280.003906 196.6875 280 197.375 L 280 198.351562 L 262.699219 200.675781 C 261.65625 200.8125 260.636719 201.042969 259.636719 201.367188 C 258.636719 201.6875 257.671875 202.097656 256.746094 202.59375 C 255.816406 203.089844 254.941406 203.664062 254.121094 204.316406 C 253.296875 204.96875 252.539062 205.691406 251.84375 206.480469 C 251.152344 207.273438 250.535156 208.117188 249.992188 209.019531 C 249.453125 209.921875 248.996094 210.863281 248.625 211.847656 C 248.253906 212.828125 247.976562 213.839844 247.785156 214.871094 C 247.597656 215.90625 247.5 216.949219 247.5 218 L 247.5 259.875 C 247.5 260.207031 247.5625 260.523438 247.691406 260.832031 C 247.816406 261.136719 247.996094 261.410156 248.230469 261.644531 C 248.464844 261.878906 248.738281 262.058594 249.042969 262.183594 C 249.347656 262.3125 249.667969 262.375 250 262.375 L 350 262.375 C 350.332031 262.375 350.648438 262.3125 350.957031 262.183594 C 351.261719 262.058594 351.535156 261.878906 351.769531 261.644531 C 352.003906 261.410156 352.183594 261.136719 352.308594 260.832031 C 352.4375 260.523438 352.5 260.207031 352.5 259.875 L 352.5 218 C 352.5 216.949219 352.402344 215.90625 352.214844 214.871094 C 352.023438 213.839844 351.746094 212.828125 351.375 211.847656 C 351.003906 210.863281 350.546875 209.921875 350.007812 209.019531 C 349.464844 208.117188 348.847656 207.273438 348.15625 206.480469 C 347.460938 205.691406 346.703125 204.96875 345.878906 204.316406 C 345.058594 203.664062 344.183594 203.089844 343.253906 202.59375 C 342.328125 202.097656 341.363281 201.6875 340.363281 201.367188 C 339.363281 201.042969 338.34375 200.8125 337.300781 200.675781 Z M 272.5 162.375 C 272.171875 162.371094 271.847656 162.339844 271.527344 162.273438 C 271.207031 162.207031 270.894531 162.109375 270.59375 161.984375 C 270.289062 161.859375 270.003906 161.703125 269.730469 161.519531 C 269.457031 161.339844 269.207031 161.132812 268.976562 160.898438 C 268.742188 160.667969 268.535156 160.417969 268.355469 160.144531 C 268.171875 159.871094 268.015625 159.585938 267.890625 159.28125 C 267.765625 158.980469 267.667969 158.667969 267.601562 158.347656 C 267.535156 158.027344 267.503906 157.703125 267.5 157.375 C 267.5 157.046875 267.535156 156.722656 267.597656 156.402344 C 267.664062 156.078125 267.757812 155.765625 267.882812 155.464844 C 268.011719 155.160156 268.164062 154.875 268.347656 154.601562 C 268.53125 154.328125 268.738281 154.074219 268.96875 153.84375 C 269.199219 153.613281 269.453125 153.40625 269.726562 153.222656 C 270 153.039062 270.285156 152.886719 270.589844 152.757812 C 270.890625 152.632812 271.203125 152.539062 271.527344 152.472656 C 271.847656 152.410156 272.171875 152.375 272.5 152.375 Z M 332.5 157.375 C 332.496094 157.703125 332.464844 158.027344 332.398438 158.347656 C 332.332031 158.667969 332.234375 158.980469 332.109375 159.28125 C 331.984375 159.585938 331.828125 159.871094 331.644531 160.144531 C 331.464844 160.417969 331.257812 160.667969 331.023438 160.898438 C 330.792969 161.132812 330.542969 161.339844 330.269531 161.519531 C 329.996094 161.703125 329.710938 161.859375 329.40625 161.984375 C 329.105469 162.109375 328.792969 162.207031 328.472656 162.273438 C 328.152344 162.339844 327.828125 162.371094 327.5 162.375 L 327.5 152.375 C 327.828125 152.375 328.152344 152.410156 328.472656 152.472656 C 328.796875 152.539062 329.109375 152.632812 329.410156 152.757812 C 329.714844 152.886719 330 153.039062 330.273438 153.222656 C 330.546875 153.40625 330.800781 153.613281 331.03125 153.84375 C 331.261719 154.074219 331.46875 154.328125 331.652344 154.601562 C 331.835938 154.875 331.988281 155.160156 332.117188 155.464844 C 332.242188 155.765625 332.335938 156.078125 332.402344 156.402344 C 332.464844 156.722656 332.5 157.046875 332.5 157.375 Z M 301.25 117.375 C 302.109375 117.375 302.964844 117.417969 303.820312 117.503906 C 304.675781 117.589844 305.527344 117.714844 306.367188 117.882812 C 307.210938 118.050781 308.042969 118.261719 308.867188 118.511719 C 309.6875 118.761719 310.496094 119.050781 311.289062 119.382812 C 312.085938 119.710938 312.859375 120.078125 313.617188 120.484375 C 314.375 120.890625 315.113281 121.332031 315.828125 121.808594 C 316.542969 122.285156 317.230469 122.796875 317.894531 123.34375 C 318.558594 123.886719 319.195312 124.464844 319.804688 125.070312 C 320.410156 125.679688 320.988281 126.316406 321.53125 126.980469 C 322.078125 127.644531 322.589844 128.332031 323.066406 129.046875 C 323.542969 129.761719 323.984375 130.5 324.390625 131.257812 C 324.796875 132.015625 325.164062 132.789062 325.492188 133.585938 C 325.824219 134.378906 326.113281 135.1875 326.363281 136.007812 C 326.613281 136.832031 326.820312 137.664062 326.992188 138.507812 C 327.160156 139.347656 327.285156 140.199219 327.371094 141.054688 C 327.457031 141.90625 327.5 142.765625 327.5 143.625 L 327.5 144.648438 C 310.851562 142.949219 297.949219 138.199219 289.148438 130.5 C 288.679688 130.082031 288.128906 129.875 287.5 129.875 C 286.8125 129.878906 286.21875 130.121094 285.726562 130.601562 L 275.101562 141.226562 C 275.175781 140.417969 275.289062 139.617188 275.4375 138.824219 C 275.585938 138.027344 275.773438 137.242188 275.992188 136.460938 C 276.214844 135.683594 276.472656 134.917969 276.765625 134.164062 C 277.058594 133.40625 277.386719 132.667969 277.746094 131.945312 C 278.105469 131.21875 278.5 130.511719 278.925781 129.824219 C 279.351562 129.136719 279.808594 128.46875 280.296875 127.824219 C 280.785156 127.179688 281.300781 126.554688 281.847656 125.957031 C 282.394531 125.359375 282.964844 124.789062 283.5625 124.242188 C 284.160156 123.695312 284.78125 123.179688 285.429688 122.691406 C 286.074219 122.203125 286.742188 121.746094 287.429688 121.320312 C 288.117188 120.894531 288.824219 120.5 289.546875 120.140625 C 290.269531 119.777344 291.011719 119.449219 291.765625 119.15625 C 292.519531 118.863281 293.285156 118.605469 294.0625 118.386719 C 294.84375 118.164062 295.628906 117.976562 296.425781 117.828125 C 297.21875 117.679688 298.019531 117.566406 298.828125 117.488281 C 299.632812 117.414062 300.441406 117.375 301.25 117.375 Z M 284.101562 180.773438 C 283.050781 179.734375 282.117188 178.601562 281.292969 177.371094 C 280.46875 176.144531 279.773438 174.851562 279.207031 173.484375 C 278.640625 172.121094 278.214844 170.714844 277.925781 169.265625 C 277.640625 167.816406 277.496094 166.351562 277.5 164.875 L 277.5 145.898438 L 287.648438 135.75 C 296.273438 142.574219 307.976562 147.023438 322.5 149.050781 L 322.5 164.875 C 322.5 165.980469 322.421875 167.082031 322.257812 168.175781 C 322.097656 169.269531 321.855469 170.347656 321.535156 171.40625 C 321.214844 172.464844 320.816406 173.496094 320.34375 174.496094 C 319.871094 175.496094 319.328125 176.457031 318.714844 177.378906 C 318.101562 178.296875 317.421875 179.167969 316.679688 179.988281 C 315.933594 180.808594 315.136719 181.570312 314.28125 182.269531 C 313.425781 182.972656 312.523438 183.609375 311.574219 184.175781 C 310.625 184.746094 309.640625 185.242188 308.617188 185.664062 C 307.59375 186.089844 306.546875 186.433594 305.472656 186.703125 C 304.398438 186.972656 303.3125 187.160156 302.210938 187.269531 C 301.109375 187.378906 300.007812 187.402344 298.902344 187.347656 C 297.796875 187.292969 296.703125 187.160156 295.617188 186.941406 C 294.53125 186.726562 293.46875 186.429688 292.425781 186.058594 C 291.382812 185.683594 290.375 185.234375 289.398438 184.714844 C 288.425781 184.191406 287.492188 183.601562 286.605469 182.941406 C 285.714844 182.28125 284.882812 181.558594 284.101562 180.773438 Z M 313.449219 196.875 L 315 198.398438 L 315 215.574219 L 307.824219 211.476562 Z M 300 217.898438 L 290 191.898438 L 290 190.476562 C 291.59375 191.101562 293.230469 191.578125 294.910156 191.894531 C 296.59375 192.214844 298.289062 192.375 300 192.375 C 301.710938 192.375 303.40625 192.214844 305.089844 191.894531 C 306.769531 191.578125 308.40625 191.101562 310 190.476562 L 310 191.898438 Z M 285 198.398438 L 286.550781 196.875 L 292.175781 211.476562 L 285 215.574219 Z M 347.5 257.375 L 335 257.375 L 335 229.875 L 330 229.875 L 330 257.375 L 270 257.375 L 270 229.875 L 265 229.875 L 265 257.375 L 252.5 257.375 L 252.5 218 C 252.503906 217.25 252.570312 216.503906 252.707031 215.769531 C 252.84375 215.03125 253.042969 214.308594 253.308594 213.609375 C 253.574219 212.90625 253.898438 212.234375 254.285156 211.589844 C 254.671875 210.949219 255.113281 210.34375 255.605469 209.78125 C 256.101562 209.214844 256.644531 208.699219 257.230469 208.234375 C 257.816406 207.765625 258.441406 207.355469 259.101562 207 C 259.761719 206.648438 260.449219 206.355469 261.164062 206.121094 C 261.878906 205.890625 262.605469 205.726562 263.351562 205.625 L 280 203.375 L 280 219.875 C 279.996094 220.320312 280.105469 220.734375 280.332031 221.121094 C 280.554688 221.507812 280.859375 221.808594 281.25 222.023438 C 281.632812 222.265625 282.046875 222.382812 282.5 222.375 C 282.945312 222.378906 283.363281 222.269531 283.75 222.050781 L 293.976562 216.199219 L 297.675781 225.773438 C 297.863281 226.253906 298.171875 226.636719 298.59375 226.921875 C 299.019531 227.210938 299.488281 227.355469 300 227.355469 C 300.511719 227.355469 300.980469 227.210938 301.40625 226.921875 C 301.828125 226.636719 302.136719 226.253906 302.324219 225.773438 L 306.023438 216.199219 L 316.25 222.050781 C 316.636719 222.269531 317.054688 222.378906 317.5 222.375 C 317.953125 222.382812 318.367188 222.265625 318.75 222.023438 C 319.140625 221.808594 319.445312 221.507812 319.667969 221.121094 C 319.894531 220.734375 320.003906 220.320312 320 219.875 L 320 203.375 L 336.648438 205.625 C 337.394531 205.726562 338.121094 205.890625 338.835938 206.121094 C 339.550781 206.355469 340.238281 206.648438 340.898438 207 C 341.558594 207.355469 342.183594 207.765625 342.769531 208.234375 C 343.355469 208.699219 343.898438 209.214844 344.394531 209.78125 C 344.886719 210.34375 345.328125 210.949219 345.714844 211.589844 C 346.101562 212.234375 346.425781 212.90625 346.691406 213.609375 C 346.957031 214.308594 347.15625 215.03125 347.292969 215.769531 C 347.429688 216.503906 347.496094 217.25 347.5 218 Z M 347.5 257.375 " fill-opacity="1" fill-rule="nonzero"/></g><path fill="rgb(0%, 0%, 0%)" d="M 292.5 159.875 L 297.5 159.875 C 297.5 159.382812 297.453125 158.894531 297.355469 158.410156 C 297.261719 157.929688 297.117188 157.460938 296.929688 157.003906 C 296.742188 156.550781 296.507812 156.117188 296.234375 155.707031 C 295.960938 155.296875 295.652344 154.917969 295.304688 154.570312 C 294.953125 154.222656 294.578125 153.914062 294.167969 153.640625 C 293.757812 153.367188 293.324219 153.132812 292.871094 152.945312 C 292.414062 152.757812 291.945312 152.613281 291.464844 152.519531 C 290.980469 152.421875 290.492188 152.375 290 152.375 C 289.507812 152.375 289.019531 152.421875 288.535156 152.519531 C 288.054688 152.613281 287.585938 152.757812 287.128906 152.945312 C 286.675781 153.132812 286.242188 153.367188 285.832031 153.640625 C 285.421875 153.914062 285.042969 154.222656 284.695312 154.570312 C 284.347656 154.917969 284.039062 155.296875 283.765625 155.707031 C 283.492188 156.117188 283.257812 156.550781 283.070312 157.003906 C 282.882812 157.460938 282.738281 157.929688 282.644531 158.410156 C 282.546875 158.894531 282.5 159.382812 282.5 159.875 L 287.5 159.875 C 287.5 159.542969 287.5625 159.222656 287.691406 158.917969 C 287.816406 158.613281 287.996094 158.339844 288.230469 158.105469 C 288.464844 157.871094 288.738281 157.691406 289.042969 157.566406 C 289.347656 157.4375 289.667969 157.375 290 157.375 C 290.332031 157.375 290.652344 157.4375 290.957031 157.566406 C 291.261719 157.691406 291.535156 157.871094 291.769531 158.105469 C 292.003906 158.339844 292.183594 158.613281 292.308594 158.917969 C 292.4375 159.222656 292.5 159.542969 292.5 159.875 Z M 292.5 159.875 " fill-opacity="1" fill-rule="nonzero"/><path fill="rgb(0%, 0%, 0%)" d="M 310 157.375 C 310.332031 157.375 310.652344 157.4375 310.957031 157.566406 C 311.261719 157.691406 311.535156 157.871094 311.769531 158.105469 C 312.003906 158.339844 312.183594 158.613281 312.308594 158.917969 C 312.4375 159.222656 312.5 159.542969 312.5 159.875 L 317.5 159.875 C 317.5 159.382812 317.453125 158.894531 317.355469 158.410156 C 317.261719 157.929688 317.117188 157.460938 316.929688 157.003906 C 316.742188 156.550781 316.507812 156.117188 316.234375 155.707031 C 315.960938 155.296875 315.652344 154.917969 315.304688 154.570312 C 314.953125 154.222656 314.578125 153.914062 314.167969 153.640625 C 313.757812 153.367188 313.324219 153.132812 312.871094 152.945312 C 312.414062 152.757812 311.945312 152.613281 311.464844 152.519531 C 310.980469 152.421875 310.492188 152.375 310 152.375 C 309.507812 152.375 309.019531 152.421875 308.535156 152.519531 C 308.054688 152.613281 307.585938 152.757812 307.128906 152.945312 C 306.675781 153.132812 306.242188 153.367188 305.832031 153.640625 C 305.421875 153.914062 305.042969 154.222656 304.695312 154.570312 C 304.347656 154.917969 304.039062 155.296875 303.765625 155.707031 C 303.492188 156.117188 303.257812 156.550781 303.070312 157.003906 C 302.882812 157.460938 302.738281 157.929688 302.644531 158.410156 C 302.546875 158.894531 302.5 159.382812 302.5 159.875 L 307.5 159.875 C 307.5 159.542969 307.5625 159.222656 307.691406 158.917969 C 307.816406 158.613281 307.996094 158.339844 308.230469 158.105469 C 308.464844 157.871094 308.738281 157.691406 309.042969 157.566406 C 309.347656 157.4375 309.667969 157.375 310 157.375 Z M 310 157.375 " fill-opacity="1" fill-rule="nonzero"/><path fill="rgb(0%, 0%, 0%)" d="M 310.824219 173.625 L 306.5 171.125 C 306.171875 171.695312 305.773438 172.214844 305.308594 172.679688 C 304.84375 173.148438 304.324219 173.546875 303.753906 173.875 C 303.183594 174.207031 302.578125 174.457031 301.945312 174.628906 C 301.308594 174.796875 300.660156 174.882812 300 174.882812 C 299.339844 174.882812 298.691406 174.796875 298.054688 174.628906 C 297.421875 174.457031 296.816406 174.207031 296.246094 173.875 C 295.675781 173.546875 295.15625 173.148438 294.691406 172.679688 C 294.226562 172.214844 293.828125 171.695312 293.5 171.125 L 289.175781 173.625 C 289.449219 174.097656 289.75 174.550781 290.082031 174.984375 C 290.414062 175.417969 290.773438 175.828125 291.160156 176.214844 C 291.546875 176.601562 291.957031 176.960938 292.390625 177.292969 C 292.824219 177.625 293.277344 177.925781 293.75 178.199219 C 294.222656 178.472656 294.710938 178.714844 295.214844 178.921875 C 295.722656 179.132812 296.238281 179.308594 296.765625 179.449219 C 297.292969 179.589844 297.828125 179.695312 298.367188 179.765625 C 298.910156 179.839844 299.453125 179.875 300 179.875 C 300.546875 179.875 301.089844 179.839844 301.632812 179.765625 C 302.171875 179.695312 302.707031 179.589844 303.234375 179.449219 C 303.761719 179.308594 304.277344 179.132812 304.785156 178.921875 C 305.289062 178.714844 305.777344 178.472656 306.25 178.199219 C 306.722656 177.925781 307.175781 177.625 307.609375 177.292969 C 308.042969 176.960938 308.453125 176.601562 308.839844 176.214844 C 309.226562 175.828125 309.585938 175.417969 309.917969 174.984375 C 310.25 174.550781 310.550781 174.097656 310.824219 173.625 Z M 310.824219 173.625 " fill-opacity="1" fill-rule="nonzero"/></svg>